<?xml version="1.0" standalone="no"?>
<!DOCTYPE svg PUBLIC "-//W3C//DTD SVG 1.0//EN" "http://www.w3.org/TR/2001/REC-SVG-20010904/DTD/svg10.dtd">
<svg xmlns="http://www.w3.org/2000/svg" xmlns:xlink="http://www.w3.org/1999/xlink" id="body_1" width="30" height="23">

<g transform="matrix(1.4285715 0 0 1.4375 0 0)">
	<g transform="matrix(0.03265306 0 0 0.03265306 2.5 -0)">
		<g>
            <path d="M490 268.656L402.06702 169.375L320.584 169.375L320.584 130.101L223.37502 130.101C 204.68602 90.15199 164.113 62.406 117.17602 62.406C 52.567 62.406 0 114.973 0 179.583C 0 224.439 25.342 263.483 62.456 283.169L62.456 283.169L62.456 375.68402L107.026 375.68402C 108.22 404.50803 132.033 427.59302 161.145 427.59302C 190.257 427.59302 214.07 404.50803 215.264 375.68402L215.264 375.68402L337.191 375.68402C 338.385 404.50803 362.199 427.59302 391.311 427.59302C 420.422 427.59302 444.236 404.50803 445.43 375.68402L445.43 375.68402L490 375.68402L490 268.656zM20.417 179.583C 20.417 126.228 63.822 82.82199 117.177 82.82199C 170.531 82.82199 213.93701 126.22799 213.93701 179.583C 213.93701 232.937 170.531 276.343 117.17701 276.343C 63.821 276.343 20.417 232.937 20.417 179.583zM161.145 407.177C 142.528 407.177 127.38501 392.034 127.38501 373.417C 127.38501 354.8 142.52802 339.65698 161.145 339.65698C 179.76201 339.65698 194.905 354.8 194.905 373.417C 194.905 392.034 179.762 407.177 161.145 407.177zM300.168 355.268L212.18399 355.268C 204.704 334.29602 184.65298 319.241 161.14499 319.241C 137.637 319.241 117.58599 334.297 110.10599 355.268L110.10599 355.268L82.872 355.268L82.872 291.63202C 93.727005 294.962 105.245 296.76 117.176 296.76C 181.78601 296.76 234.352 244.19301 234.352 179.58401C 234.352 169.55501 233.08301 159.81601 230.70201 150.51901L230.70201 150.51901L300.167 150.51901L300.167 355.268zM391.311 407.177C 372.693 407.177 357.55 392.034 357.55 373.417C 357.55 354.8 372.693 339.65698 391.31097 339.65698C 409.92798 339.65698 425.07098 354.8 425.07098 373.417C 425.071 392.034 409.928 407.177 391.311 407.177zM469.583 355.268L442.35 355.268C 434.87 334.29602 414.818 319.241 391.311 319.241C 367.803 319.241 347.751 334.297 340.271 355.268L340.271 355.268L320.585 355.268L320.585 189.792L392.87598 189.792L469.58298 276.403L469.58298 355.268z" stroke="none" fill="#000000" fill-rule="nonzero" />
            <path d="M162.969 194.442L127.385 173.716L127.385 105.553L106.968 105.553L106.968 185.45L152.691 212.087L162.969 194.442" stroke="none" fill="#000000" fill-rule="nonzero" />
		</g>
		<g>
		</g>
		<g>
		</g>
		<g>
		</g>
		<g>
		</g>
		<g>
		</g>
		<g>
		</g>
		<g>
		</g>
		<g>
		</g>
		<g>
		</g>
		<g>
		</g>
		<g>
		</g>
		<g>
		</g>
		<g>
		</g>
		<g>
		</g>
		<g>
		</g>
	</g>
</g>
</svg>